<svg xmlns="http://www.w3.org/2000/svg" width="90" height="92" viewBox="0 0 90 92">
  <path fill="#FFB700" d="M85,9 L76,9 L76,15.5 C76,20.194 72.193,24 67.5,24 C62.807,24 59,20.194 59,15.5 L59,9 L31,9 L31,15.5 C31,20.194 27.194,24 22.5,24 C17.806,24 14,20.194 14,15.5 L14,9 L5,9 C2.238,9 0,11.238 0,14 L0,87 C0,89.762 2.238,92 5,92 L85,92 C87.762,92 90,89.762 90,87 L90,14 C90,11.238 87.762,9 85,9 Z M65,61 L50,61 L50,76 L40,76 L40,61 L25,61 L25,51 L40,51 L40,36 L50,36 L50,51 L65,51 L65,61 Z M22.5,20 C25.537,20 28,17.537 28,14.5 L28,5.5 C28,2.463 25.537,0 22.5,0 C19.463,0 17,2.463 17,5.5 L17,14.5 C17,17.537 19.463,20 22.5,20 Z M67.5,20 C70.537,20 73,17.537 73,14.5 L73,5.5 C73,2.463 70.537,0 67.5,0 C64.463,0 62,2.463 62,5.5 L62,14.5 C62,17.537 64.463,20 67.5,20 Z"/>
</svg>
