<svg xmlns="http://www.w3.org/2000/svg" width="24" height="16" viewBox="0 0 24 16">
  <path fill="#FFF" d="M0.324556418,12.5209355 L11.9657914,0.882757965 L23.6755322,12.5923436 C23.8832853,12.8000949 24,13.0818672 24,13.3756731 C24,13.6694791 23.8832853,13.9512514 23.6755322,14.1590026 L22.4813344,15.3532004 C22.2735832,15.5609536 21.9918109,15.6776682 21.6980049,15.6776682 C21.404199,15.6776682 21.1224267,15.5609536 20.9146754,15.3532004 L11.9657914,6.40447154 L3.08519165,15.2820138 C2.65255037,15.7145122 1.95123345,15.7144527 1.51866558,15.2818809 L0.324467794,14.0876831 C0.116699301,13.8799165 -1.66203878e-05,13.5981186 0,13.3042909 C1.66203878e-05,13.0104633 0.116764421,12.7286786 0.324556418,12.5209355 Z"/>
</svg>
