<svg xmlns="http://www.w3.org/2000/svg" width="78" height="78" viewBox="0 0 78 78">
  <path fill="#FFFFFF" d="M39,0.36217 C17.461,0.36217 0,17.82317 0,39.3622 C0,60.9012 17.461,78.3622 39,78.3622 C60.53901,78.3622 78,60.9012 78,39.3622 C78,17.82317 60.539,0.36217 39,0.36217 Z M39,9.36217 C40.1046,9.36217 41,10.25757 41,11.36217 L41,38.5497 L58.8125,56.3309 C59.59356,57.112 59.59356,58.3936 58.8125,59.1747 C58.03142,59.9558 56.74982,59.9557 55.96875,59.1747 L37.59375,40.7684 C37.23182,40.4065 37,39.9145 37,39.3622 L37,11.36217 C37,10.25757 37.8954,9.36217 39,9.36217 Z" transform="translate(0 -.362)"/>
</svg>
