<svg xmlns="http://www.w3.org/2000/svg" width="46" height="46" viewBox="0 0 46 46">
  <path fill="white" fill-rule="evenodd" d="M21.5,5.062 L21.5,1.994 C21.5,1.165 22.172,0.494 23,0.494 C23.828,0.494 24.5,1.165 24.5,1.994 L24.5,5.062 C33.252,5.783 40.227,12.765 40.94,21.519 L44.026,21.519 C44.854,21.519 45.526,22.191 45.526,23.019 C45.526,23.848 44.854,24.519 44.026,24.519 L40.937,24.519 C40.207,33.255 33.239,40.218 24.5,40.938 L24.5,44.045 C24.5,44.874 23.828,45.545 23,45.545 C22.172,45.545 21.5,44.874 21.5,44.045 L21.5,40.938 C12.761,40.218 5.793,33.255 5.063,24.519 L1.974,24.519 C1.146,24.519 0.474,23.848 0.474,23.019 C0.474,22.191 1.146,21.519 1.974,21.519 L5.06,21.519 C5.773,12.765 12.748,5.783 21.5,5.062 Z M38,23 C38,31.285 31.285,38 23,38 C14.715,38 8,31.285 8,23 C8,14.715 14.715,8 23,8 C31.285,8 38,14.715 38,23 Z M32,23 C32,27.971 27.971,32 23,32 C18.029,32 14,27.971 14,23 C14,18.029 18.029,14 23,14 C27.971,14 32,18.029 32,23 Z M29,23 C29,26.314 26.314,29 23,29 C19.686,29 17,26.314 17,23 C17,19.686 19.686,17 23,17 C26.314,17 29,19.686 29,23 Z" transform="translate(0 -.019)"/>
</svg>
