<svg xmlns="http://www.w3.org/2000/svg" width="60" height="57" viewBox="0 0 60 57">
  <path fill="#f75c50" d="M38,10.1 C38,5.1 41.9,1 46.8,1 C51.7,1 55.6,5.1 55.6,10.1 C55.6,15.1 51.7,19.2 46.8,19.2 C41.9,19.1 38,15.1 38,10.1 Z M52.5,20.6 L41.1,20.6 C40.7,20.6 40.2,20.6 39.8,20.7 C39.9,21.2 39.9,21.7 39.9,22.3 C39.9,26.1 37.9,29.4 34.9,31.2 C34.7,31.3 34.8,31.7 35,31.7 L35.5,31.7 C40.3,31.7 44.2,35.7 44.2,40.5 L44.2,44.8 L58.9,44.8 C59.4,44.8 59.8,44.4 59.8,43.8 L59.8,28.2 C60,24 56.6,20.6 52.5,20.6 Z M13.2,19.1 C18.1,19.1 22,15 22,10 C22,5 18.1,0.9 13.2,0.9 C8.3,0.9 4.4,5 4.4,10 C4.4,15.1 8.3,19.1 13.2,19.1 Z M24.3,31.6 L24.8,31.6 C25,31.6 25.1,31.3 24.9,31.1 C21.9,29.3 19.9,26 19.9,22.2 C19.9,21.7 19.9,21.1 20,20.6 C19.6,20.5 19.2,20.5 18.7,20.5 L7.5,20.5 C3.3,20.5 0,23.9 0,28.1 L0,43.7 C0,44.2 0.4,44.7 0.9,44.7 L15.6,44.7 L15.6,40.4 C15.6,35.6 19.5,31.6 24.3,31.6 Z M30,31.4 C34.9,31.4 38.8,27.3 38.8,22.3 C38.8,17.3 34.9,13.2 30,13.2 C25.1,13.2 21.2,17.3 21.2,22.3 C21.2,27.3 25.1,31.4 30,31.4 Z M35.7,32.9 L24.3,32.9 C20.1,32.9 16.8,36.3 16.8,40.5 L16.8,56 C16.8,56.5 17.2,57 17.7,57 L42.2,57 C42.7,57 43.1,56.6 43.1,56 L43.1,40.5 C43.2,36.3 39.8,32.9 35.7,32.9 Z"/>
</svg>
